<?xml version="1.0" encoding="utf-8"?>
<!-- Generator: Adobe Illustrator 22.0.1, SVG Export Plug-In . SVG Version: 6.00 Build 0)  -->
<svg version="1.1" id="Слой_1" xmlns="http://www.w3.org/2000/svg" xmlns:xlink="http://www.w3.org/1999/xlink" x="0px" y="0px"
	 viewBox="0 0 144 31" style="enable-background:new 0 0 144 31;" xml:space="preserve">
<style type="text/css">
	.st0{fill:none;}
	.st1{fill:#F34B31;}
	.st2{enable-background:new    ;}
	.st3{fill:#F34B31;stroke:#F34B31;stroke-width:0.75;stroke-miterlimit:10;}
</style>
<rect x="31" y="0.4" class="st0" width="4.2" height="23"/>
<g>
	<path class="st1" d="M20.9,0.4H3v2h17.9V0.4z"/>
	<path class="st1" d="M20.9,3.4H3v10.9h17.9v-2H5v-7h15.9V3.4z"/>
	<path class="st1" d="M2,3.4v10.9H0V3.4H2z"/>
	<path class="st1" d="M2,2.4v-2H0v2H2z"/>
	<path class="st1" d="M3,30.3h17.9v-2H3V30.3z"/>
	<path class="st1" d="M20.9,27.3H3V15.4h17.9v2H5v8h15.9V27.3z"/>
	<path class="st1" d="M2,15.4H0v14.9h2V15.4z"/>
</g>
<g class="st2">
	<path class="st3" d="M23.7,30.1V0.8h4v25.9h12.8v3.3H23.7z"/>
	<path class="st3" d="M41.2,30.1L53,0.8h4l11.8,29.3h-3.1c-0.4,0-0.7-0.1-0.9-0.3c-0.2-0.2-0.4-0.4-0.5-0.7l-2.8-7.1H48.4l-2.8,7.1
		c-0.1,0.2-0.2,0.5-0.5,0.7c-0.2,0.2-0.5,0.3-0.9,0.3H41.2z M49.5,19.2h11L55.9,7.3c-0.1-0.4-0.3-0.8-0.4-1.2
		c-0.1-0.5-0.3-1-0.4-1.5c-0.1,0.5-0.3,1-0.4,1.5c-0.1,0.5-0.3,0.9-0.4,1.2L49.5,19.2z"/>
	<path class="st3" d="M72.7,30.1V0.8h8.7c1.9,0,3.5,0.2,4.9,0.6c1.4,0.4,2.5,1,3.4,1.8c0.9,0.8,1.6,1.7,2,2.9
		c0.4,1.1,0.7,2.4,0.7,3.7c0,1.4-0.2,2.6-0.7,3.7c-0.5,1.1-1.2,2.1-2.1,2.9c-0.9,0.8-2.1,1.4-3.4,1.9c-1.4,0.5-2.9,0.7-4.7,0.7h-4.8
		v11H72.7z M76.7,16h4.7c1.1,0,2.1-0.1,3-0.4c0.9-0.3,1.6-0.7,2.2-1.3c0.6-0.5,1-1.2,1.3-1.9c0.3-0.7,0.5-1.6,0.5-2.5
		c0-1.9-0.6-3.3-1.7-4.4C85.6,4.5,83.8,4,81.4,4h-4.7V16z"/>
	<path class="st3" d="M95.6,15.5c0-2.2,0.4-4.2,1.1-6.1c0.7-1.8,1.7-3.4,3-4.7c1.3-1.3,2.8-2.3,4.6-3.1c1.8-0.7,3.7-1.1,5.9-1.1
		c2.1,0,4,0.3,5.6,1c1.6,0.7,3,1.6,4.3,2.7L118.6,6c-0.1,0.1-0.2,0.2-0.3,0.3c-0.1,0.1-0.3,0.1-0.5,0.1c-0.2,0-0.5-0.1-0.9-0.4
		c-0.4-0.3-0.8-0.6-1.4-0.9c-0.6-0.3-1.3-0.6-2.2-0.9s-1.9-0.4-3.2-0.4c-1.5,0-2.9,0.3-4.2,0.8c-1.3,0.5-2.3,1.3-3.3,2.3
		c-0.9,1-1.6,2.2-2.1,3.6s-0.8,3-0.8,4.8c0,1.8,0.3,3.4,0.8,4.9c0.5,1.4,1.2,2.6,2.2,3.6c0.9,1,2,1.7,3.2,2.3c1.2,0.5,2.6,0.8,4,0.8
		c0.9,0,1.7,0,2.4-0.1c0.7-0.1,1.4-0.3,2-0.5c0.6-0.2,1.2-0.5,1.7-0.8c0.5-0.3,1-0.7,1.5-1.2c0.2-0.2,0.5-0.3,0.7-0.3
		c0.2,0,0.4,0.1,0.6,0.3l1.6,1.7c-1.2,1.4-2.7,2.5-4.4,3.3c-1.7,0.8-3.8,1.2-6.2,1.2c-2.1,0-4-0.4-5.8-1.1c-1.7-0.7-3.2-1.7-4.4-3.1
		c-1.2-1.3-2.2-2.9-2.8-4.7C96,19.7,95.6,17.7,95.6,15.5z"/>
	<path class="st3" d="M125,30.1V0.8h18.2v3.2h-14.2v9.7h11.5v3.1h-11.5v10h14.2l0,3.2H125z"/>
</g>
</svg>
